STARTFONT 2.1
FONT -Monotype-Book Antiqua-Regular-I-Normal--19-140-100-100-P-92-iso8859-2
SIZE 14 100 100
FONTBOUNDINGBOX 29 22 -10 -5

STARTPROPERTIES 24
FOUNDRY "Monotype"
FAMILY_NAME "Book Antiqua"
WEIGHT_NAME "Regular"
SLANT "I"
SETWIDTH_NAME "Normal"
ADD_STYLE_NAME ""
PIXEL_SIZE 19
POINT_SIZE 140
RESOLUTION_X 100
RESOLUTION_Y 100
SPACING "P"
AVERAGE_WIDTH 92
CHARSET_REGISTRY "iso8859"
CHARSET_ENCODING "2"
FACE_NAME "Book Antiqua it ISO Latin2"
_DEC_DEVICE_FONTNAMES "PS=bookantiqua-italic-lat2"
COPYRIGHT "Copyright (c) 1994 Monotype Typography Ltd."
CAP_HEIGHT 16
X_HEIGHT 11
WEIGHT 10
QUAD_WIDTH 11
DEFAULT_CHAR 160
FONT_DESCENT 6
FONT_ASCENT 18
ENDPROPERTIES

CHARS 191

STARTCHAR space
ENCODING 32
SWIDTH 250 0
DWIDTH 5 0
BBX 0 0 0 0
BITMAP
ENDCHAR

STARTCHAR exclam
ENCODING 33
SWIDTH 333 0
DWIDTH 6 0
BBX 4 14 1 0
BITMAP
10
30
30
30
30
60
60
60
40
40
00
00
C0
C0
ENDCHAR

STARTCHAR quotedbl
ENCODING 34
SWIDTH 500 0
DWIDTH 10 0
BBX 6 5 2 8
BITMAP
CC
CC
CC
44
44
ENDCHAR

STARTCHAR numbersign
ENCODING 35
SWIDTH 606 0
DWIDTH 12 0
BBX 13 13 0 0
BITMAP
0C60
0C60
0C60
0C60
7FF8
18C0
18C0
18C0
FFF0
3180
3180
3180
3180
ENDCHAR

STARTCHAR dollar
ENCODING 36
SWIDTH 500 0
DWIDTH 10 0
BBX 8 17 1 -2
BITMAP
02
02
1F
25
65
64
74
3C
1E
0F
0B
0B
8B
8E
FC
10
10
ENDCHAR

STARTCHAR percent
ENCODING 37
SWIDTH 889 0
DWIDTH 17 0
BBX 11 13 3 0
BITMAP
3040
4880
C880
9900
9200
6200
0400
08C0
0920
1320
2260
2240
4180
ENDCHAR

STARTCHAR ampersand
ENCODING 38
SWIDTH 778 0
DWIDTH 15 0
BBX 14 13 1 0
BITMAP
0780
0C80
1880
1818
1804
0E08
30F0
4160
C220
C060
C0C0
6380
3E00
ENDCHAR

STARTCHAR quoteright
ENCODING 39
SWIDTH 278 0
DWIDTH 5 0
BBX 4 5 2 9
BITMAP
30
30
60
40
80
ENDCHAR

STARTCHAR parenleft
ENCODING 40
SWIDTH 333 0
DWIDTH 6 0
BBX 6 19 0 -5
BITMAP
04
08
10
30
20
60
60
C0
C0
C0
C0
C0
C0
C0
C0
C0
40
40
20
ENDCHAR

STARTCHAR parenright
ENCODING 41
SWIDTH 333 0
DWIDTH 6 0
BBX 6 19 0 -5
BITMAP
10
08
08
0C
0C
0C
0C
0C
0C
0C
0C
0C
18
18
10
30
20
40
80
ENDCHAR

STARTCHAR asterisk
ENCODING 42
SWIDTH 389 0
DWIDTH 7 0
BBX 5 7 1 7
BITMAP
20
A8
F8
70
F8
A8
20
ENDCHAR

STARTCHAR plus
ENCODING 43
SWIDTH 606 0
DWIDTH 12 0
BBX 9 9 2 2
BITMAP
0800
0800
0800
0800
FF80
0800
0800
0800
0800
ENDCHAR

STARTCHAR comma
ENCODING 44
SWIDTH 250 0
DWIDTH 5 0
BBX 4 5 0 -3
BITMAP
30
30
60
40
80
ENDCHAR

STARTCHAR minus
ENCODING 45
SWIDTH 606 0
DWIDTH 12 0
BBX 9 1 2 6
BITMAP
FF80
ENDCHAR

STARTCHAR period
ENCODING 46
SWIDTH 250 0
DWIDTH 5 0
BBX 2 2 2 0
BITMAP
C0
C0
ENDCHAR

STARTCHAR slash
ENCODING 47
SWIDTH 296 0
DWIDTH 6 0
BBX 10 19 -2 -5
BITMAP
00C0
0080
0180
0100
0300
0200
0600
0400
0C00
0800
1800
1000
3000
2000
6000
4000
C000
8000
8000
ENDCHAR

STARTCHAR zero
ENCODING 48
SWIDTH 500 0
DWIDTH 10 0
BBX 9 13 1 0
BITMAP
0E00
1300
2180
6180
4180
C180
C180
C180
C100
C300
C200
6400
3800
ENDCHAR

STARTCHAR one
ENCODING 49
SWIDTH 500 0
DWIDTH 10 0
BBX 6 13 2 0
BITMAP
04
1C
6C
0C
18
18
18
18
18
30
30
30
FC
ENDCHAR

STARTCHAR two
ENCODING 50
SWIDTH 500 0
DWIDTH 10 0
BBX 8 13 1 0
BITMAP
1E
27
43
03
03
03
06
0C
08
10
20
7F
FE
ENDCHAR

STARTCHAR three
ENCODING 51
SWIDTH 500 0
DWIDTH 10 0
BBX 8 13 1 0
BITMAP
1E
23
03
03
06
1C
06
03
03
03
83
86
7C
ENDCHAR

STARTCHAR four
ENCODING 52
SWIDTH 500 0
DWIDTH 10 0
BBX 9 13 1 0
BITMAP
0100
0300
0700
0B00
1300
1600
2600
4600
FF80
0C00
0C00
0C00
3F00
ENDCHAR

STARTCHAR five
ENCODING 53
SWIDTH 500 0
DWIDTH 10 0
BBX 9 13 1 0
BITMAP
3F80
3F00
2000
2000
6000
7C00
4600
0300
0300
0300
8600
8400
7800
ENDCHAR

STARTCHAR six
ENCODING 54
SWIDTH 500 0
DWIDTH 10 0
BBX 9 13 1 0
BITMAP
0380
0C00
1800
3000
6000
6E00
F300
C300
C300
C300
C600
6400
3800
ENDCHAR

STARTCHAR seven
ENCODING 55
SWIDTH 500 0
DWIDTH 10 0
BBX 8 13 1 0
BITMAP
7F
FF
02
06
04
0C
08
18
10
30
30
60
60
ENDCHAR

STARTCHAR eight
ENCODING 56
SWIDTH 500 0
DWIDTH 10 0
BBX 8 13 1 0
BITMAP
1C
22
63
63
62
34
3C
4E
C6
C6
C6
44
38
ENDCHAR

STARTCHAR nine
ENCODING 57
SWIDTH 500 0
DWIDTH 10 0
BBX 9 13 1 0
BITMAP
0E00
1300
3180
6180
6180
6180
6780
3B00
0300
0600
0C00
1800
E000
ENDCHAR

STARTCHAR colon
ENCODING 58
SWIDTH 250 0
DWIDTH 5 0
BBX 3 9 1 0
BITMAP
60
60
00
00
00
00
00
C0
C0
ENDCHAR

STARTCHAR semicolon
ENCODING 59
SWIDTH 250 0
DWIDTH 5 0
BBX 5 12 -1 -3
BITMAP
18
18
00
00
00
00
00
30
30
60
40
80
ENDCHAR

STARTCHAR less
ENCODING 60
SWIDTH 606 0
DWIDTH 12 0
BBX 9 9 2 2
BITMAP
0080
0380
0E00
3800
E000
3800
0E00
0380
0080
ENDCHAR

STARTCHAR equal
ENCODING 61
SWIDTH 606 0
DWIDTH 12 0
BBX 9 3 2 5
BITMAP
FF80
0000
FF80
ENDCHAR

STARTCHAR greater
ENCODING 62
SWIDTH 606 0
DWIDTH 12 0
BBX 9 9 2 2
BITMAP
8000
E000
3800
0E00
0380
0E00
3800
E000
8000
ENDCHAR

STARTCHAR question
ENCODING 63
SWIDTH 500 0
DWIDTH 10 0
BBX 6 14 3 0
BITMAP
78
DC
8C
0C
0C
18
10
20
40
40
00
00
C0
C0
ENDCHAR

STARTCHAR at
ENCODING 64
SWIDTH 747 0
DWIDTH 14 0
BBX 14 16 0 -3
BITMAP
03C0
0C30
1008
2008
41A4
4264
8644
84C4
8CC4
8C88
8D90
46E4
4004
2008
1830
07C0
ENDCHAR

STARTCHAR A
ENCODING 65
SWIDTH 722 0
DWIDTH 14 0
BBX 14 13 0 0
BITMAP
0040
00C0
00C0
01C0
0260
0260
0460
0FE0
0860
1030
1030
2030
F8FC
ENDCHAR

STARTCHAR B
ENCODING 66
SWIDTH 611 0
DWIDTH 12 0
BBX 11 13 0 0
BITMAP
3FC0
0C60
0C60
0C60
1860
18C0
1F80
1840
1860
3060
3060
30C0
FF00
ENDCHAR

STARTCHAR C
ENCODING 67
SWIDTH 667 0
DWIDTH 13 0
BBX 12 13 1 0
BITMAP
07F0
1C10
3010
6000
6000
C000
C000
C000
C000
C000
6000
3020
1FC0
ENDCHAR

STARTCHAR D
ENCODING 68
SWIDTH 778 0
DWIDTH 15 0
BBX 14 13 0 0
BITMAP
3FE0
0C38
0C18
0C0C
180C
180C
180C
180C
1818
3018
3030
30E0
FF80
ENDCHAR

STARTCHAR E
ENCODING 69
SWIDTH 611 0
DWIDTH 12 0
BBX 12 13 0 0
BITMAP
3FF0
0C20
0C20
0C00
1800
1800
1F80
1800
1800
3000
3040
3080
FF80
ENDCHAR

STARTCHAR F
ENCODING 70
SWIDTH 556 0
DWIDTH 11 0
BBX 12 13 0 0
BITMAP
3FF0
0C20
0C20
0C00
1800
1800
1F80
1800
1800
3000
3000
3000
FC00
ENDCHAR

STARTCHAR G
ENCODING 71
SWIDTH 722 0
DWIDTH 14 0
BBX 13 13 1 0
BITMAP
07F0
1C10
3010
6000
6000
C000
C000
C000
C0F8
C020
6020
3040
1F80
ENDCHAR

STARTCHAR H
ENCODING 72
SWIDTH 778 0
DWIDTH 15 0
BBX 16 13 0 0
BITMAP
3F3F
0C0C
0C0C
0C0C
1818
1818
1FF8
1818
1818
3030
3030
3030
FCFC
ENDCHAR

STARTCHAR I
ENCODING 73
SWIDTH 333 0
DWIDTH 7 0
BBX 8 13 0 0
BITMAP
3F
0C
0C
0C
18
18
18
18
18
30
30
30
FC
ENDCHAR

STARTCHAR J
ENCODING 74
SWIDTH 333 0
DWIDTH 6 0
BBX 8 17 -1 -4
BITMAP
3F
0C
0C
0C
0C
18
18
18
18
18
30
30
30
20
60
40
80
ENDCHAR

STARTCHAR K
ENCODING 75
SWIDTH 667 0
DWIDTH 13 0
BBX 13 13 0 0
BITMAP
3F38
0C60
0C40
0C80
1900
1A00
1C00
1E00
1B00
3180
30C0
3060
FC70
ENDCHAR

STARTCHAR L
ENCODING 76
SWIDTH 556 0
DWIDTH 11 0
BBX 11 13 0 0
BITMAP
3F00
0C00
0C00
0C00
1800
1800
1800
1800
1800
3000
3020
3040
FFC0
ENDCHAR

STARTCHAR M
ENCODING 77
SWIDTH 944 0
DWIDTH 18 0
BBX 20 13 -1 0
BITMAP
1E00F0
0601C0
0601C0
0B02C0
0B04C0
0B0580
0B0980
111180
119180
11A300
21A300
20C300
F88FC0
ENDCHAR

STARTCHAR N
ENCODING 78
SWIDTH 778 0
DWIDTH 15 0
BBX 16 13 0 0
BITMAP
381F
0C04
0C04
0E04
0B08
1308
1188
1188
10D0
2070
2070
2030
F810
ENDCHAR

STARTCHAR O
ENCODING 79
SWIDTH 778 0
DWIDTH 15 0
BBX 13 13 1 0
BITMAP
07C0
1830
3030
6018
6018
C018
C018
C018
C030
C030
6060
60C0
1F00
ENDCHAR

STARTCHAR P
ENCODING 80
SWIDTH 611 0
DWIDTH 12 0
BBX 11 13 1 0
BITMAP
3F80
0CC0
0C60
0C60
1860
1840
1880
1B00
1800
3000
3000
3000
FC00
ENDCHAR

STARTCHAR Q
ENCODING 81
SWIDTH 778 0
DWIDTH 15 0
BBX 13 16 1 -3
BITMAP
07C0
1830
3030
6018
6018
C018
C018
C018
C030
C030
6060
60C0
1F00
1E00
2310
01E0
ENDCHAR

STARTCHAR R
ENCODING 82
SWIDTH 667 0
DWIDTH 13 0
BBX 13 13 0 0
BITMAP
3F80
0CC0
0C60
0C60
1860
18C0
1B80
1B00
1980
3180
30C0
3060
FC78
ENDCHAR

STARTCHAR S
ENCODING 83
SWIDTH 556 0
DWIDTH 11 0
BBX 9 13 1 0
BITMAP
1F80
2080
6080
6000
7000
3C00
1E00
0700
0300
0300
8300
8600
FC00
ENDCHAR

STARTCHAR T
ENCODING 84
SWIDTH 611 0
DWIDTH 12 0
BBX 12 13 1 0
BITMAP
7FF0
4620
8620
0600
0C00
0C00
0C00
0C00
0C00
1800
1800
1800
7E00
ENDCHAR

STARTCHAR U
ENCODING 85
SWIDTH 778 0
DWIDTH 15 0
BBX 14 13 2 0
BITMAP
F0FC
3030
3030
3030
6060
6060
6060
6060
C0C0
C0C0
C1C0
E2C0
7CF0
ENDCHAR

STARTCHAR V
ENCODING 86
SWIDTH 722 0
DWIDTH 13 0
BBX 13 13 1 0
BITMAP
FCF8
3020
3020
3040
3080
3080
3100
1A00
1A00
1C00
1800
1800
1000
ENDCHAR

STARTCHAR W
ENCODING 87
SWIDTH 944 0
DWIDTH 17 0
BBX 17 13 1 0
BITMAP
FC4F80
304200
30C200
31C400
31C400
32C800
34C800
34D000
38D000
30E000
30E000
20C000
208000
ENDCHAR

STARTCHAR X
ENCODING 88
SWIDTH 722 0
DWIDTH 14 0
BBX 14 13 0 0
BITMAP
7EFC
1830
0C20
0C40
0680
0380
0100
0380
0580
08C0
10C0
3060
FDF8
ENDCHAR

STARTCHAR Y
ENCODING 89
SWIDTH 667 0
DWIDTH 12 0
BBX 11 13 1 0
BITMAP
4060
E080
2100
3100
1A00
1A00
0C00
0C00
0C00
1800
1800
1800
7E00
ENDCHAR

STARTCHAR Z
ENCODING 90
SWIDTH 667 0
DWIDTH 13 0
BBX 11 13 1 0
BITMAP
3FE0
2060
40C0
0180
0300
0300
0600
0C00
1800
1800
3040
6080
FF80
ENDCHAR

STARTCHAR bracketleft
ENCODING 91
SWIDTH 333 0
DWIDTH 6 0
BBX 7 19 0 -5
BITMAP
1E
18
18
18
30
30
30
30
30
30
60
60
60
60
60
C0
C0
C0
F0
ENDCHAR

STARTCHAR backslash
ENCODING 92
SWIDTH 606 0
DWIDTH 12 0
BBX 11 19 1 -5
BITMAP
C000
4000
6000
2000
3000
1000
1800
0800
0C00
0400
0600
0200
0300
0100
0180
0080
00C0
0040
0060
ENDCHAR

STARTCHAR bracketright
ENCODING 93
SWIDTH 333 0
DWIDTH 6 0
BBX 7 19 0 -5
BITMAP
1E
06
06
06
0C
0C
0C
0C
0C
18
18
18
18
18
18
30
30
30
F0
ENDCHAR

STARTCHAR asciicircum
ENCODING 94
SWIDTH 606 0
DWIDTH 12 0
BBX 9 8 1 5
BITMAP
0800
1C00
1400
3600
2200
6300
4100
C180
ENDCHAR

STARTCHAR underscore
ENCODING 95
SWIDTH 500 0
DWIDTH 10 0
BBX 10 1 0 -2
BITMAP
FFC0
ENDCHAR

STARTCHAR quoteleft
ENCODING 96
SWIDTH 278 0
DWIDTH 5 0
BBX 4 5 2 9
BITMAP
10
20
60
C0
C0
ENDCHAR

STARTCHAR a
ENCODING 97
SWIDTH 444 0
DWIDTH 8 0
BBX 7 9 1 0
BITMAP
1A
36
66
66
CC
CC
C8
DA
64
ENDCHAR

STARTCHAR b
ENCODING 98
SWIDTH 463 0
DWIDTH 9 0
BBX 7 14 1 0
BITMAP
10
F0
30
30
30
6C
76
66
66
C6
C6
CC
C8
70
ENDCHAR

STARTCHAR c
ENCODING 99
SWIDTH 407 0
DWIDTH 8 0
BBX 7 9 1 0
BITMAP
1E
32
62
60
C0
C0
C0
C4
78
ENDCHAR

STARTCHAR d
ENCODING 100
SWIDTH 500 0
DWIDTH 10 0
BBX 9 14 1 0
BITMAP
0080
0780
0180
0180
0180
1B00
3700
6300
6300
C600
C600
CE00
D680
6300
ENDCHAR

STARTCHAR e
ENCODING 101
SWIDTH 389 0
DWIDTH 7 0
BBX 6 9 1 0
BITMAP
18
2C
6C
68
F0
C0
C0
C8
70
ENDCHAR

STARTCHAR f
ENCODING 102
SWIDTH 278 0
DWIDTH 6 0
BBX 10 19 -2 -5
BITMAP
01C0
0340
0300
0600
0600
1F80
0600
0600
0600
0C00
0C00
0C00
0C00
1800
1800
1800
1000
B000
E000
ENDCHAR

STARTCHAR g
ENCODING 103
SWIDTH 499 0
DWIDTH 9 0
BBX 10 14 0 -5
BITMAP
0EC0
1380
3300
3300
3300
3200
1C00
0800
1C00
6600
C300
C300
C200
7C00
ENDCHAR

STARTCHAR h
ENCODING 104
SWIDTH 500 0
DWIDTH 10 0
BBX 9 14 1 0
BITMAP
1000
F000
3000
3000
3000
6600
6B00
7300
6300
6300
C600
C600
C680
C300
ENDCHAR

STARTCHAR i
ENCODING 105
SWIDTH 278 0
DWIDTH 5 0
BBX 5 14 0 0
BITMAP
18
18
00
00
00
10
F0
30
30
30
60
60
68
30
ENDCHAR

STARTCHAR j
ENCODING 106
SWIDTH 278 0
DWIDTH 5 0
BBX 6 19 0 -5
BITMAP
0C
0C
00
00
00
08
78
18
18
18
18
30
30
30
30
20
60
40
80
ENDCHAR

STARTCHAR k
ENCODING 107
SWIDTH 444 0
DWIDTH 8 0
BBX 8 14 0 0
BITMAP
10
F0
30
30
30
63
66
68
70
70
D8
D8
CD
C6
ENDCHAR

STARTCHAR l
ENCODING 108
SWIDTH 278 0
DWIDTH 5 0
BBX 4 14 1 0
BITMAP
10
F0
30
30
30
60
60
60
60
C0
C0
C0
D0
60
ENDCHAR

STARTCHAR m
ENCODING 109
SWIDTH 778 0
DWIDTH 15 0
BBX 15 9 0 0
BITMAP
1738
F9CC
318C
318C
318C
6318
6318
631A
630C
ENDCHAR

STARTCHAR n
ENCODING 110
SWIDTH 556 0
DWIDTH 11 0
BBX 10 9 1 0
BITMAP
1700
F980
3180
3180
3180
6300
6300
6340
6180
ENDCHAR

STARTCHAR o
ENCODING 111
SWIDTH 444 0
DWIDTH 8 0
BBX 7 9 1 0
BITMAP
1C
26
66
66
C6
CC
CC
C8
70
ENDCHAR

STARTCHAR p
ENCODING 112
SWIDTH 500 0
DWIDTH 10 0
BBX 9 13 1 -4
BITMAP
1700
F980
3180
3180
3180
3300
3300
6600
7C00
6000
6000
6000
4000
ENDCHAR

STARTCHAR q
ENCODING 113
SWIDTH 463 0
DWIDTH 9 0
BBX 7 13 1 -4
BITMAP
1A
36
66
66
C6
C6
CC
DC
6C
0C
0C
0C
08
ENDCHAR

STARTCHAR r
ENCODING 114
SWIDTH 389 0
DWIDTH 6 0
BBX 7 9 0 0
BITMAP
2E
FA
30
30
30
60
60
60
60
ENDCHAR

STARTCHAR s
ENCODING 115
SWIDTH 389 0
DWIDTH 7 0
BBX 17 9 -10 0
BITMAP
000780
000880
001880
001C00
C00E00
000700
002300
002200
003C00
ENDCHAR

STARTCHAR t
ENCODING 116
SWIDTH 333 0
DWIDTH 6 0
BBX 5 12 1 0
BITMAP
10
30
30
30
F8
60
60
60
C0
C0
D0
60
ENDCHAR

STARTCHAR u
ENCODING 117
SWIDTH 556 0
DWIDTH 11 0
BBX 10 9 1 0
BITMAP
1180
F180
3180
3180
6300
6300
6300
6740
3980
ENDCHAR

STARTCHAR v
ENCODING 118
SWIDTH 500 0
DWIDTH 10 0
BBX 8 9 1 0
BITMAP
F2
B3
33
33
63
63
66
64
38
ENDCHAR

STARTCHAR w
ENCODING 119
SWIDTH 722 0
DWIDTH 14 0
BBX 13 9 1 0
BITMAP
F090
B198
3198
3198
6318
6318
6330
7720
39C0
ENDCHAR

STARTCHAR x
ENCODING 120
SWIDTH 500 0
DWIDTH 10 0
BBX 9 9 1 0
BITMAP
3080
5980
1A00
1C00
0C00
1C00
1600
A680
C300
ENDCHAR

STARTCHAR y
ENCODING 121
SWIDTH 500 0
DWIDTH 10 0
BBX 9 14 1 -5
BITMAP
6080
B180
3180
3180
3300
3300
3700
3A00
1600
0400
0C00
0800
5000
6000
ENDCHAR

STARTCHAR z
ENCODING 122
SWIDTH 444 0
DWIDTH 8 0
BBX 8 9 0 0
BITMAP
1D
3F
42
04
08
10
20
7A
9C
ENDCHAR

STARTCHAR braceleft
ENCODING 123
SWIDTH 333 0
DWIDTH 6 0
BBX 8 19 0 -5
BITMAP
03
04
0C
08
18
18
18
10
20
C0
20
30
30
30
60
60
60
60
30
ENDCHAR

STARTCHAR bar
ENCODING 124
SWIDTH 606 0
DWIDTH 12 0
BBX 2 19 5 -5
BITMAP
C0
C0
C0
C0
C0
C0
C0
C0
C0
C0
C0
C0
C0
C0
C0
C0
C0
C0
C0
ENDCHAR

STARTCHAR braceright
ENCODING 125
SWIDTH 333 0
DWIDTH 6 0
BBX 8 19 -2 -5
BITMAP
0C
06
06
06
06
0C
0C
0C
04
03
04
08
18
18
18
10
30
20
C0
ENDCHAR

STARTCHAR asciitilde
ENCODING 126
SWIDTH 606 0
DWIDTH 12 0
BBX 9 2 2 6
BITMAP
7C80
9F00
ENDCHAR

STARTCHAR space
ENCODING 160
SWIDTH 250 0
DWIDTH 6 0
BBX 0 0 0 0
BITMAP
ENDCHAR

STARTCHAR Aogonek
ENCODING 161
SWIDTH 722 0
DWIDTH 14 0
BBX 14 15 0 -2
BITMAP
0040
00C0
00C0
01C0
0260
0260
0460
0FE0
0860
1030
1030
2030
F8FC
0030
001C
ENDCHAR

STARTCHAR breve
ENCODING 162
SWIDTH 333 0
DWIDTH 6 0
BBX 6 2 1 10
BITMAP
CC
78
ENDCHAR

STARTCHAR Lslash
ENCODING 163
SWIDTH 556 0
DWIDTH 11 0
BBX 11 13 0 0
BITMAP
3F00
0C00
0C00
0D00
1A00
1C00
1800
3800
5800
3000
3020
3040
FFC0
ENDCHAR

STARTCHAR currency
ENCODING 164
SWIDTH 606 0
DWIDTH 12 0
BBX 9 9 2 2
BITMAP
BE80
6300
C180
8080
8080
8080
C180
6300
BE80
ENDCHAR

STARTCHAR Lcaron
ENCODING 165
SWIDTH 556 0
DWIDTH 11 0
BBX 11 13 0 0
BITMAP
3F60
0C60
0C40
0C80
1800
1800
1800
1800
1800
3000
3020
3040
FFC0
ENDCHAR

STARTCHAR Sacute
ENCODING 166
SWIDTH 556 0
DWIDTH 11 0
BBX 9 16 1 0
BITMAP
0380
0600
0000
1F80
2080
6080
6000
7000
3C00
1E00
0700
0300
0300
8300
8600
FC00
ENDCHAR

STARTCHAR section
ENCODING 167
SWIDTH 500 0
DWIDTH 10 0
BBX 7 19 1 -5
BITMAP
1E
22
62
60
60
60
70
D8
CC
C6
C6
66
36
1C
0C
8C
8C
88
F0
ENDCHAR

STARTCHAR dieresis
ENCODING 168
SWIDTH 333 0
DWIDTH 6 0
BBX 6 2 1 10
BITMAP
CC
CC
ENDCHAR

STARTCHAR Scaron
ENCODING 169
SWIDTH 556 0
DWIDTH 11 0
BBX 9 16 1 0
BITMAP
0D80
0700
0000
1F80
2080
6080
6000
7000
3C00
1E00
0700
0300
0300
8300
8600
FC00
ENDCHAR

STARTCHAR Scommaaccent
ENCODING 170
SWIDTH 556 0
DWIDTH 11 0
BBX 9 18 1 -5
BITMAP
1F80
2080
6080
6000
7000
3C00
1E00
0700
0300
0300
8300
8600
FC00
0000
3000
3000
2000
4000
ENDCHAR

STARTCHAR Tcaron
ENCODING 171
SWIDTH 611 0
DWIDTH 12 0
BBX 12 16 1 0
BITMAP
0D80
0700
0000
7FF0
4620
8620
0600
0C00
0C00
0C00
0C00
0C00
1800
1800
1800
7E00
ENDCHAR

STARTCHAR Zacute
ENCODING 172
SWIDTH 667 0
DWIDTH 13 0
BBX 11 16 1 0
BITMAP
0380
0600
0000
3FE0
2060
40C0
0180
0300
0300
0600
0C00
1800
1800
3040
6080
FF80
ENDCHAR

STARTCHAR hyphen
ENCODING 173
SWIDTH 333 0
DWIDTH 6 0
BBX 6 1 0 4
BITMAP
FC
ENDCHAR

STARTCHAR Zcaron
ENCODING 174
SWIDTH 667 0
DWIDTH 13 0
BBX 11 16 1 0
BITMAP
0D80
0700
0000
3FE0
2060
40C0
0180
0300
0300
0600
0C00
1800
1800
3040
6080
FF80
ENDCHAR

STARTCHAR Zdotaccent
ENCODING 175
SWIDTH 667 0
DWIDTH 13 0
BBX 11 16 1 0
BITMAP
0300
0300
0000
3FE0
2060
40C0
0180
0300
0300
0600
0C00
1800
1800
3040
6080
FF80
ENDCHAR

STARTCHAR degree
ENCODING 176
SWIDTH 402 0
DWIDTH 8 0
BBX 6 6 1 7
BITMAP
78
CC
CC
CC
CC
78
ENDCHAR

STARTCHAR aogonek
ENCODING 177
SWIDTH 444 0
DWIDTH 8 0
BBX 9 11 1 -2
BITMAP
1A00
3600
6600
6600
CC00
CC00
C800
DA00
6400
0600
0380
ENDCHAR

STARTCHAR ogonek
ENCODING 178
SWIDTH 333 0
DWIDTH 6 0
BBX 4 2 1 -2
BITMAP
C0
70
ENDCHAR

STARTCHAR lslash
ENCODING 179
SWIDTH 278 0
DWIDTH 5 0
BBX 7 14 0 0
BITMAP
08
78
1A
1C
18
30
30
70
B0
60
60
60
68
30
ENDCHAR

STARTCHAR acute
ENCODING 180
SWIDTH 333 0
DWIDTH 6 0
BBX 4 2 2 10
BITMAP
70
C0
ENDCHAR

STARTCHAR lcaron
ENCODING 181
SWIDTH 394 0
DWIDTH 5 0
BBX 7 14 1 0
BITMAP
16
F6
34
38
30
60
60
60
60
C0
C0
C0
D0
60
ENDCHAR

STARTCHAR sacute
ENCODING 182
SWIDTH 389 0
DWIDTH 7 0
BBX 8 12 0 0
BITMAP
07
0C
00
1E
22
62
70
38
1C
8C
88
F0
ENDCHAR

STARTCHAR caron
ENCODING 183
SWIDTH 333 0
DWIDTH 6 0
BBX 5 2 2 10
BITMAP
D8
70
ENDCHAR

STARTCHAR commaaccent
ENCODING 184
SWIDTH 333 0
DWIDTH 6 0
BBX 3 4 1 -5
BITMAP
60
60
40
80
ENDCHAR

STARTCHAR scaron
ENCODING 185
SWIDTH 389 0
DWIDTH 7 0
BBX 8 12 0 0
BITMAP
1B
0E
00
1E
22
62
70
38
1C
8C
88
F0
ENDCHAR

STARTCHAR scommaaccent
ENCODING 186
SWIDTH 389 0
DWIDTH 7 0
BBX 7 14 0 -5
BITMAP
1E
22
62
70
38
1C
8C
88
F0
00
60
60
40
80
ENDCHAR

STARTCHAR tcaron
ENCODING 187
SWIDTH 431 0
DWIDTH 6 0
BBX 7 13 1 0
BITMAP
06
16
34
38
30
F8
60
60
60
C0
C0
D0
60
ENDCHAR

STARTCHAR zacute
ENCODING 188
SWIDTH 444 0
DWIDTH 8 0
BBX 8 12 0 0
BITMAP
07
0C
00
1D
3F
42
04
08
10
20
7A
9C
ENDCHAR

STARTCHAR hungarumlaut
ENCODING 189
SWIDTH 333 0
DWIDTH 6 0
BBX 9 2 -1 10
BITMAP
7380
C600
ENDCHAR

STARTCHAR zcaron
ENCODING 190
SWIDTH 444 0
DWIDTH 8 0
BBX 8 12 0 0
BITMAP
1B
0E
00
1D
3F
42
04
08
10
20
7A
9C
ENDCHAR

STARTCHAR zdotaccent
ENCODING 191
SWIDTH 444 0
DWIDTH 8 0
BBX 8 12 0 0
BITMAP
0C
0C
00
1D
3F
42
04
08
10
20
7A
9C
ENDCHAR

STARTCHAR Racute
ENCODING 192
SWIDTH 667 0
DWIDTH 13 0
BBX 13 16 0 0
BITMAP
0380
0600
0000
3F80
0CC0
0C60
0C60
1860
18C0
1B80
1B00
1980
3180
30C0
3060
FC78
ENDCHAR

STARTCHAR Aacute
ENCODING 193
SWIDTH 722 0
DWIDTH 14 0
BBX 14 16 0 0
BITMAP
0038
0060
0000
0040
00C0
00C0
01C0
0260
0260
0460
0FE0
0860
1030
1030
2030
F8FC
ENDCHAR

STARTCHAR Acircumflex
ENCODING 194
SWIDTH 722 0
DWIDTH 14 0
BBX 14 16 0 0
BITMAP
00E0
01B0
0000
0040
00C0
00C0
01C0
0260
0260
0460
0FE0
0860
1030
1030
2030
F8FC
ENDCHAR

STARTCHAR Abreve
ENCODING 195
SWIDTH 722 0
DWIDTH 14 0
BBX 14 16 0 0
BITMAP
0198
00F0
0000
0040
00C0
00C0
01C0
0260
0260
0460
0FE0
0860
1030
1030
2030
F8FC
ENDCHAR

STARTCHAR Adieresis
ENCODING 196
SWIDTH 722 0
DWIDTH 14 0
BBX 14 16 0 0
BITMAP
0198
0198
0000
0040
00C0
00C0
01C0
0260
0260
0460
0FE0
0860
1030
1030
2030
F8FC
ENDCHAR

STARTCHAR Lacute
ENCODING 197
SWIDTH 556 0
DWIDTH 11 0
BBX 11 16 0 0
BITMAP
0380
0600
0000
3F00
0C00
0C00
0C00
1800
1800
1800
1800
1800
3000
3020
3040
FFC0
ENDCHAR

STARTCHAR Cacute
ENCODING 198
SWIDTH 667 0
DWIDTH 13 0
BBX 12 16 1 0
BITMAP
00E0
0180
0000
07F0
1C10
3010
6000
6000
C000
C000
C000
C000
C000
6000
3020
1FC0
ENDCHAR

STARTCHAR Ccedilla
ENCODING 199
SWIDTH 667 0
DWIDTH 13 0
BBX 12 16 1 -3
BITMAP
07F0
1C10
3010
6000
6000
C000
C000
C000
C000
C000
6000
3020
1FC0
0600
0300
0E00
ENDCHAR

STARTCHAR Ccaron
ENCODING 200
SWIDTH 667 0
DWIDTH 13 0
BBX 12 16 1 0
BITMAP
0360
01C0
0000
07F0
1C10
3010
6000
6000
C000
C000
C000
C000
C000
6000
3020
1FC0
ENDCHAR

STARTCHAR Eacute
ENCODING 201
SWIDTH 611 0
DWIDTH 12 0
BBX 12 16 0 0
BITMAP
01C0
0300
0000
3FF0
0C20
0C20
0C00
1800
1800
1F80
1800
1800
3000
3040
3080
FF80
ENDCHAR

STARTCHAR Eogonek
ENCODING 202
SWIDTH 611 0
DWIDTH 12 0
BBX 12 15 0 -2
BITMAP
3FF0
0C20
0C20
0C00
1800
1800
1F80
1800
1800
3000
3040
3080
FF80
0300
01C0
ENDCHAR

STARTCHAR Edieresis
ENCODING 203
SWIDTH 611 0
DWIDTH 12 0
BBX 12 16 0 0
BITMAP
0660
0660
0000
3FF0
0C20
0C20
0C00
1800
1800
1F80
1800
1800
3000
3040
3080
FF80
ENDCHAR

STARTCHAR Ecaron
ENCODING 204
SWIDTH 611 0
DWIDTH 12 0
BBX 12 16 0 0
BITMAP
06C0
0380
0000
3FF0
0C20
0C20
0C00
1800
1800
1F80
1800
1800
3000
3040
3080
FF80
ENDCHAR

STARTCHAR Iacute
ENCODING 205
SWIDTH 333 0
DWIDTH 7 0
BBX 8 16 0 0
BITMAP
07
0C
00
3F
0C
0C
0C
18
18
18
18
18
30
30
30
FC
ENDCHAR

STARTCHAR Icircumflex
ENCODING 206
SWIDTH 333 0
DWIDTH 7 0
BBX 8 16 0 0
BITMAP
0E
1B
00
3F
0C
0C
0C
18
18
18
18
18
30
30
30
FC
ENDCHAR

STARTCHAR Dcaron
ENCODING 207
SWIDTH 778 0
DWIDTH 15 0
BBX 14 16 0 0
BITMAP
06C0
0380
0000
3FE0
0C38
0C18
0C0C
180C
180C
180C
180C
1818
3018
3030
30E0
FF80
ENDCHAR

STARTCHAR Dcroat
ENCODING 208
SWIDTH 778 0
DWIDTH 15 0
BBX 14 13 0 0
BITMAP
3FE0
0C38
0C18
0C0C
180C
180C
7F0C
180C
1818
3018
3030
30E0
FF80
ENDCHAR

STARTCHAR Nacute
ENCODING 209
SWIDTH 778 0
DWIDTH 15 0
BBX 16 16 0 0
BITMAP
00E0
0180
0000
381F
0C04
0C04
0E04
0B08
1308
1188
1188
10D0
2070
2070
2030
F810
ENDCHAR

STARTCHAR Ncaron
ENCODING 210
SWIDTH 778 0
DWIDTH 15 0
BBX 16 16 0 0
BITMAP
01B0
00E0
0000
381F
0C04
0C04
0E04
0B08
1308
1188
1188
10D0
2070
2070
2030
F810
ENDCHAR

STARTCHAR Oacute
ENCODING 211
SWIDTH 778 0
DWIDTH 15 0
BBX 13 16 1 0
BITMAP
01C0
0300
0000
07C0
1830
3030
6018
6018
C018
C018
C018
C030
C030
6060
60C0
1F00
ENDCHAR

STARTCHAR Ocircumflex
ENCODING 212
SWIDTH 778 0
DWIDTH 15 0
BBX 13 16 1 0
BITMAP
01C0
0360
0000
07C0
1830
3030
6018
6018
C018
C018
C018
C030
C030
6060
60C0
1F00
ENDCHAR

STARTCHAR Ohungarumlaut
ENCODING 213
SWIDTH 778 0
DWIDTH 15 0
BBX 13 16 1 0
BITMAP
0738
0C60
0000
07C0
1830
3030
6018
6018
C018
C018
C018
C030
C030
6060
60C0
1F00
ENDCHAR

STARTCHAR Odieresis
ENCODING 214
SWIDTH 778 0
DWIDTH 15 0
BBX 13 16 1 0
BITMAP
0660
0660
0000
07C0
1830
3030
6018
6018
C018
C018
C018
C030
C030
6060
60C0
1F00
ENDCHAR

STARTCHAR multiply
ENCODING 215
SWIDTH 606 0
DWIDTH 12 0
BBX 8 7 2 3
BITMAP
C3
66
3C
18
3C
66
C3
ENDCHAR

STARTCHAR Rcaron
ENCODING 216
SWIDTH 667 0
DWIDTH 13 0
BBX 13 16 0 0
BITMAP
0D80
0700
0000
3F80
0CC0
0C60
0C60
1860
18C0
1B80
1B00
1980
3180
30C0
3060
FC78
ENDCHAR

STARTCHAR Uring
ENCODING 217
SWIDTH 778 0
DWIDTH 15 0
BBX 14 17 2 0
BITMAP
0300
0480
0300
0000
F0FC
3030
3030
3030
6060
6060
6060
6060
C0C0
C0C0
C1C0
E2C0
7CF0
ENDCHAR

STARTCHAR Uacute
ENCODING 218
SWIDTH 778 0
DWIDTH 15 0
BBX 14 16 2 0
BITMAP
01C0
0300
0000
F0FC
3030
3030
3030
6060
6060
6060
6060
C0C0
C0C0
C1C0
E2C0
7CF0
ENDCHAR

STARTCHAR Uhungarumlaut
ENCODING 219
SWIDTH 778 0
DWIDTH 15 0
BBX 14 16 2 0
BITMAP
0E70
18C0
0000
F0FC
3030
3030
3030
6060
6060
6060
6060
C0C0
C0C0
C1C0
E2C0
7CF0
ENDCHAR

STARTCHAR Udieresis
ENCODING 220
SWIDTH 778 0
DWIDTH 15 0
BBX 14 16 2 0
BITMAP
0CC0
0CC0
0000
F0FC
3030
3030
3030
6060
6060
6060
6060
C0C0
C0C0
C1C0
E2C0
7CF0
ENDCHAR

STARTCHAR Yacute
ENCODING 221
SWIDTH 667 0
DWIDTH 12 0
BBX 11 16 1 0
BITMAP
0700
0C00
0000
4060
E080
2100
3100
1A00
1A00
0C00
0C00
0C00
1800
1800
1800
7E00
ENDCHAR

STARTCHAR Tcommaaccent
ENCODING 222
SWIDTH 611 0
DWIDTH 12 0
BBX 12 18 1 -5
BITMAP
7FF0
4620
8620
0600
0C00
0C00
0C00
0C00
0C00
1800
1800
1800
7E00
0000
1800
1800
1000
2000
ENDCHAR

STARTCHAR germandbls
ENCODING 223
SWIDTH 500 0
DWIDTH 10 0
BBX 13 19 -4 -5
BITMAP
00F0
0198
0118
0318
0310
0E20
0640
0660
0630
0630
0630
0630
06A0
0CC0
0C00
0800
1800
5000
E000
ENDCHAR

STARTCHAR racute
ENCODING 224
SWIDTH 389 0
DWIDTH 6 0
BBX 7 12 0 0
BITMAP
0E
18
00
2E
FA
30
30
30
60
60
60
60
ENDCHAR

STARTCHAR aacute
ENCODING 225
SWIDTH 444 0
DWIDTH 8 0
BBX 8 12 1 0
BITMAP
07
0C
00
1A
36
66
66
CC
CC
C8
DA
64
ENDCHAR

STARTCHAR acircumflex
ENCODING 226
SWIDTH 444 0
DWIDTH 8 0
BBX 8 12 1 0
BITMAP
0E
1B
00
1A
36
66
66
CC
CC
C8
DA
64
ENDCHAR

STARTCHAR abreve
ENCODING 227
SWIDTH 444 0
DWIDTH 8 0
BBX 8 12 1 0
BITMAP
33
1E
00
1A
36
66
66
CC
CC
C8
DA
64
ENDCHAR

STARTCHAR adieresis
ENCODING 228
SWIDTH 444 0
DWIDTH 8 0
BBX 8 12 1 0
BITMAP
33
33
00
1A
36
66
66
CC
CC
C8
DA
64
ENDCHAR

STARTCHAR lacute
ENCODING 229
SWIDTH 278 0
DWIDTH 5 0
BBX 6 17 1 0
BITMAP
1C
30
00
10
F0
30
30
30
60
60
60
60
C0
C0
C0
D0
60
ENDCHAR

STARTCHAR cacute
ENCODING 230
SWIDTH 407 0
DWIDTH 8 0
BBX 8 12 1 0
BITMAP
07
0C
00
1E
32
62
60
C0
C0
C0
C4
78
ENDCHAR

STARTCHAR ccedilla
ENCODING 231
SWIDTH 407 0
DWIDTH 8 0
BBX 7 12 1 -3
BITMAP
1E
32
62
60
C0
C0
C0
C4
78
30
18
70
ENDCHAR

STARTCHAR ccaron
ENCODING 232
SWIDTH 407 0
DWIDTH 8 0
BBX 8 12 1 0
BITMAP
1B
0E
00
1E
32
62
60
C0
C0
C0
C4
78
ENDCHAR

STARTCHAR eacute
ENCODING 233
SWIDTH 389 0
DWIDTH 7 0
BBX 7 12 1 0
BITMAP
0E
18
00
18
2C
6C
68
F0
C0
C0
C8
70
ENDCHAR

STARTCHAR eogonek
ENCODING 234
SWIDTH 389 0
DWIDTH 7 0
BBX 6 11 1 -2
BITMAP
18
2C
6C
68
F0
C0
C0
C8
70
60
38
ENDCHAR

STARTCHAR edieresis
ENCODING 235
SWIDTH 389 0
DWIDTH 7 0
BBX 8 12 1 0
BITMAP
33
33
00
18
2C
6C
68
F0
C0
C0
C8
70
ENDCHAR

STARTCHAR ecaron
ENCODING 236
SWIDTH 389 0
DWIDTH 7 0
BBX 7 12 1 0
BITMAP
36
1C
00
18
2C
6C
68
F0
C0
C0
C8
70
ENDCHAR

STARTCHAR iacute
ENCODING 237
SWIDTH 278 0
DWIDTH 5 0
BBX 6 12 0 0
BITMAP
1C
30
00
10
F0
30
30
30
60
60
68
30
ENDCHAR

STARTCHAR icircumflex
ENCODING 238
SWIDTH 278 0
DWIDTH 5 0
BBX 6 12 0 0
BITMAP
38
6C
00
10
F0
30
30
30
60
60
68
30
ENDCHAR

STARTCHAR dcaron
ENCODING 239
SWIDTH 642 0
DWIDTH 10 0
BBX 12 14 1 0
BITMAP
00B0
07B0
01A0
01C0
0180
1B00
3700
6300
6300
C600
C600
CE00
D680
6300
ENDCHAR

STARTCHAR dcroat
ENCODING 240
SWIDTH 500 0
DWIDTH 10 0
BBX 10 14 1 0
BITMAP
0080
0780
0180
0FC0
0180
1B00
3700
6300
6300
C600
C600
CE00
D680
6300
ENDCHAR

STARTCHAR nacute
ENCODING 241
SWIDTH 556 0
DWIDTH 11 0
BBX 10 12 1 0
BITMAP
0700
0C00
0000
1700
F980
3180
3180
3180
6300
6300
6340
6180
ENDCHAR

STARTCHAR ncaron
ENCODING 242
SWIDTH 556 0
DWIDTH 11 0
BBX 10 12 1 0
BITMAP
0D80
0700
0000
1700
F980
3180
3180
3180
6300
6300
6340
6180
ENDCHAR

STARTCHAR oacute
ENCODING 243
SWIDTH 444 0
DWIDTH 8 0
BBX 8 12 1 0
BITMAP
07
0C
00
1C
26
66
66
C6
CC
CC
C8
70
ENDCHAR

STARTCHAR ocircumflex
ENCODING 244
SWIDTH 444 0
DWIDTH 8 0
BBX 8 12 1 0
BITMAP
0E
1B
00
1C
26
66
66
C6
CC
CC
C8
70
ENDCHAR

STARTCHAR ohungarumlaut
ENCODING 245
SWIDTH 444 0
DWIDTH 8 0
BBX 10 12 1 0
BITMAP
39C0
6300
0000
1C00
2600
6600
6600
C600
CC00
CC00
C800
7000
ENDCHAR

STARTCHAR odieresis
ENCODING 246
SWIDTH 444 0
DWIDTH 8 0
BBX 8 12 1 0
BITMAP
33
33
00
1C
26
66
66
C6
CC
CC
C8
70
ENDCHAR

STARTCHAR divide
ENCODING 247
SWIDTH 606 0
DWIDTH 12 0
BBX 10 9 1 2
BITMAP
0C00
0C00
0000
0000
FFC0
0000
0000
0C00
0C00
ENDCHAR

STARTCHAR rcaron
ENCODING 248
SWIDTH 389 0
DWIDTH 6 0
BBX 7 12 0 0
BITMAP
36
1C
00
2E
FA
30
30
30
60
60
60
60
ENDCHAR

STARTCHAR uring
ENCODING 249
SWIDTH 556 0
DWIDTH 11 0
BBX 10 13 1 0
BITMAP
0600
0900
0600
0000
1180
F180
3180
3180
6300
6300
6300
6740
3980
ENDCHAR

STARTCHAR uacute
ENCODING 250
SWIDTH 556 0
DWIDTH 11 0
BBX 10 12 1 0
BITMAP
0700
0C00
0000
1180
F180
3180
3180
6300
6300
6300
6740
3980
ENDCHAR

STARTCHAR uhungarumlaut
ENCODING 251
SWIDTH 556 0
DWIDTH 11 0
BBX 11 12 1 0
BITMAP
1CE0
3180
0000
1180
F180
3180
3180
6300
6300
6300
6740
3980
ENDCHAR

STARTCHAR udieresis
ENCODING 252
SWIDTH 556 0
DWIDTH 11 0
BBX 10 12 1 0
BITMAP
1980
1980
0000
1180
F180
3180
3180
6300
6300
6300
6740
3980
ENDCHAR

STARTCHAR yacute
ENCODING 253
SWIDTH 500 0
DWIDTH 10 0
BBX 9 17 1 -5
BITMAP
0700
0C00
0000
6080
B180
3180
3180
3300
3300
3700
3A00
1600
0400
0C00
0800
5000
6000
ENDCHAR

STARTCHAR tcommaaccent
ENCODING 254
SWIDTH 333 0
DWIDTH 6 0
BBX 6 17 0 -5
BITMAP
08
18
18
18
7C
30
30
30
60
60
68
30
00
60
60
40
80
ENDCHAR

STARTCHAR dotaccent
ENCODING 255
SWIDTH 333 0
DWIDTH 6 0
BBX 2 2 2 10
BITMAP
C0
C0
ENDCHAR
ENDFONT
